<?xml version="1.0" encoding="UTF-8" standalone="no"?>
<svg
   height="16"
   viewBox="0 0 16 16"
   width="16"
   version="1.1"
   id="svg4"
   sodipodi:docname="Plot2D.svg"
   inkscape:version="1.1 (1:1.1+202105261517+ce6663b3b7)"
   xmlns:inkscape="http://www.inkscape.org/namespaces/inkscape"
   xmlns:sodipodi="http://sodipodi.sourceforge.net/DTD/sodipodi-0.dtd"
   xmlns="http://www.w3.org/2000/svg"
   xmlns:svg="http://www.w3.org/2000/svg"
   xmlns:rdf="http://www.w3.org/1999/02/22-rdf-syntax-ns#"
   xmlns:cc="http://creativecommons.org/ns#"
   xmlns:dc="http://purl.org/dc/elements/1.1/">
  <metadata
     id="metadata10">
    <rdf:RDF>
      <cc:Work
         rdf:about="">
        <dc:format>image/svg+xml</dc:format>
        <dc:type
           rdf:resource="http://purl.org/dc/dcmitype/StillImage" />
        <dc:title />
      </cc:Work>
    </rdf:RDF>
  </metadata>
  <defs
     id="defs8" />
  <sodipodi:namedview
     pagecolor="#ffffff"
     bordercolor="#666666"
     borderopacity="1"
     objecttolerance="10"
     gridtolerance="10"
     guidetolerance="10"
     inkscape:pageopacity="0"
     inkscape:pageshadow="2"
     inkscape:window-width="2560"
     inkscape:window-height="1371"
     id="namedview6"
     showgrid="false"
     inkscape:zoom="13.876971"
     inkscape:cx="41.759834"
     inkscape:cy="16.141851"
     inkscape:window-x="1920"
     inkscape:window-y="0"
     inkscape:window-maximized="1"
     inkscape:current-layer="svg4"
     inkscape:document-rotation="0"
     inkscape:pagecheckerboard="0" />
  <path
     style="color:#000000;fill:#a5efac;stroke-linecap:round;stroke-linejoin:round;-inkscape-stroke:none"
     d="m 7.953125,1038.8516 a 0.55005501,0.55005501 0 0 0 -0.4804688,0.3906 l -2.7089843,9.0273 -2.5273438,-2.9863 a 0.55000001,0.55000001 0 0 0 -0.7753906,-0.064 0.55000001,0.55000001 0 0 0 -0.064453,0.7753 l 3.1835937,3.7618 a 0.55005501,0.55005501 0 0 0 0.9472656,-0.1973 l 2.6015626,-8.6699 2.3789067,4.7578 a 0.55005501,0.55005501 0 0 0 0.796875,0.2109 l 3,-2 a 0.55000001,0.55000001 0 0 0 0.152343,-0.7617 0.55000001,0.55000001 0 0 0 -0.761718,-0.1543 l -2.482422,1.6543 -2.7207035,-5.4414 a 0.55005501,0.55005501 0 0 0 -0.5390625,-0.3027 z"
     id="path2"
     transform="translate(0,-1036.4)" />
  <path
     style="fill:none;stroke:#a5efac;stroke-width:1;stroke-linecap:butt;stroke-linejoin:miter;stroke-opacity:1;stroke-miterlimit:4;stroke-dasharray:none;stroke-dashoffset:0"
     d="M 1.6796066,1.352875 V 14.204629 H 14.529664"
     id="path830"
     inkscape:label="path830" />
</svg>
